<?xml version="1.0" encoding="UTF-8"?>
<svg xmlns="http://www.w3.org/2000/svg" xmlns:xlink="http://www.w3.org/1999/xlink" width="900pt" height="899.99999pt" viewBox="0 0 900 899.99999" version="1.2">
<defs>
<clipPath id="clip1">
  <path d="M 62.386719 67 L 837.550781 67 L 837.550781 860 L 62.386719 860 Z M 62.386719 67 "/>
</clipPath>
<clipPath id="clip2">
  <path d="M 496 715 L 736 715 L 736 889.894531 L 496 889.894531 Z M 496 715 "/>
</clipPath>
</defs>
<g id="surface1">
<g clip-path="url(#clip1)" clip-rule="nonzero">
<path style=" stroke:none;fill-rule:nonzero;fill:rgb(40.388489%,9.799194%,49.409485%);fill-opacity:1;" d="M 798.921875 207.847656 C 759.730469 187.132812 716.925781 199.636719 692.667969 235.703125 C 660.449219 283.597656 627.066406 330.734375 593.398438 377.628906 C 619.652344 325.1875 620.59375 263.65625 592.898438 210.539062 C 581.09375 187.90625 563.675781 170.402344 543.429688 158.597656 C 545.722656 147.125 545.402344 135.273438 541.808594 124.183594 C 528.378906 82.65625 488.761719 60.273438 446.273438 69.933594 C 423.648438 75.074219 400.445312 80.359375 377.320312 82.65625 C 380.328125 82.238281 383.351562 81.8125 386.371094 81.394531 C 382.507812 81.871094 378.628906 82.324219 374.761719 82.738281 C 369.917969 83.261719 365.066406 83.738281 360.210938 84.179688 C 353.90625 84.738281 347.597656 85.214844 341.28125 85.617188 C 333.027344 82.523438 324.066406 80.964844 314.632812 81.394531 C 305.246094 81.8125 296 83.871094 287.316406 87.273438 C 277.546875 87.25 267.78125 87.070312 258.011719 86.675781 C 246.34375 86.191406 234.660156 85.464844 223.011719 84.464844 C 218.15625 84.046875 213.316406 83.582031 208.472656 83.082031 C 203.941406 82.609375 181.550781 79.800781 203 82.691406 C 181.3125 79.765625 162.90625 78.96875 143.15625 90.519531 C 127.046875 99.957031 111.675781 118.425781 107.464844 136.941406 C 102.933594 156.835938 103.921875 179.148438 115.292969 196.804688 C 125.394531 212.476562 142.300781 229.886719 161.707031 232.503906 C 187.820312 236.027344 213.851562 238.5 239.808594 239.953125 C 242.34375 309.398438 245.652344 378.734375 253.777344 447.773438 C 203.582031 439.242188 151.414062 449.179688 106.335938 476.703125 C 71.667969 497.847656 55.4375 547.253906 78.472656 582.972656 C 85.800781 594.363281 95.746094 603.679688 107.085938 610.296875 C 107.011719 614.234375 106.917969 618.171875 106.777344 622.109375 C 106.121094 639.507812 103.539062 656.75 102.859375 674.160156 C 102.351562 687.414062 102.445312 700.671875 102.875 713.925781 C 78.746094 727.382812 61.171875 752.824219 62.457031 781.453125 C 64.324219 823.304688 96.578125 859.441406 140.125 859.132812 C 225.914062 858.550781 314.144531 813.59375 365.289062 743.054688 C 388.109375 773.386719 417.839844 794.828125 455.792969 804.980469 C 499.644531 816.699219 543.832031 817.25 584.257812 794.28125 C 654 754.667969 695.535156 669.613281 702.386719 592.269531 C 704.921875 563.699219 700.863281 534.734375 691.300781 507.804688 C 737.757812 444.074219 782.894531 379.363281 826.785156 314.121094 C 849.519531 280.328125 834.398438 226.589844 798.921875 207.847656 "/>
</g>
<path style=" stroke:none;fill-rule:nonzero;fill:rgb(100%,100%,100%);fill-opacity:1;" d="M 341.519531 188.75 C 385.859375 186.023438 430.023438 179.765625 473.804688 169.804688 C 506.285156 162.417969 492.542969 112.488281 460.039062 119.863281 C 416.878906 129.683594 372.820312 135.820312 328.574219 138.152344 C 319.128906 132.464844 306.160156 132.777344 297.621094 139.140625 C 261.390625 139.582031 225.140625 137.464844 189.234375 132.632812 C 175.398438 130.765625 161.441406 135.953125 157.386719 150.707031 C 154.078125 162.773438 161.527344 180.683594 175.46875 182.5625 C 213.578125 187.703125 251.730469 190.296875 289.828125 190.320312 C 292.957031 284.980469 295.132812 379.863281 308.945312 473.691406 C 310.980469 487.53125 328.492188 495.15625 340.792969 491.777344 C 355.628906 487.695312 360.914062 473.808594 358.867188 459.921875 C 345.683594 370.320312 344.363281 279.230469 341.519531 188.75 "/>
<path style=" stroke:none;fill-rule:nonzero;fill:rgb(100%,100%,100%);fill-opacity:1;" d="M 498.789062 335.207031 C 491.617188 347.476562 482.835938 363.421875 470.5 371.332031 C 449.070312 385.078125 424.980469 340.765625 423.621094 323.925781 C 422.421875 309.015625 431.441406 295.808594 439.542969 284.121094 C 449.628906 269.535156 461.335938 256.242188 473.816406 243.664062 C 480.386719 241.964844 488.34375 244.796875 493.363281 248.960938 C 503.738281 257.5625 508.140625 272.617188 509.769531 285.457031 C 512.113281 303.816406 508.023438 319.417969 498.789062 335.207031 Z M 548.1875 236.667969 C 529.28125 199.746094 484.632812 181.277344 448.558594 198.566406 C 447.011719 199.1875 445.488281 199.972656 443.992188 200.980469 C 439.707031 203.445312 435.566406 206.433594 431.640625 210.015625 C 428.335938 213.023438 426.167969 216.296875 424.882812 219.640625 C 399.292969 246.808594 374.191406 279.945312 371.964844 316.808594 C 369.441406 358.542969 399.507812 403.6875 437.292969 420.417969 C 482.277344 440.347656 517.230469 403.140625 539.265625 368.214844 C 564.472656 328.269531 570.210938 279.683594 548.1875 236.667969 "/>
<path style=" stroke:none;fill-rule:nonzero;fill:rgb(100%,100%,100%);fill-opacity:1;" d="M 550.910156 689.816406 C 537.277344 703.585938 522.679688 712.546875 502.976562 709.226562 C 483.550781 705.941406 465.027344 702.050781 451.902344 686.355469 C 438.246094 670.03125 430.367188 649.230469 426.144531 628.574219 C 421.386719 605.296875 427.90625 584.746094 438.53125 564.054688 C 458.316406 525.546875 494.339844 471.90625 545.105469 489.136719 C 545.878906 489.398438 546.640625 489.601562 547.390625 489.789062 C 579.761719 502.070312 598.273438 538.984375 599.441406 572.3125 C 600.964844 615.375 580.988281 659.425781 550.910156 689.816406 Z M 556.335938 438.171875 C 555.230469 437.851562 554.160156 437.613281 553.101562 437.433594 C 489.378906 419.703125 434.007812 468.527344 403.503906 520.3125 C 387.039062 548.289062 371.417969 580.378906 372.40625 613.652344 C 373.320312 644.328125 383.804688 676.679688 400.113281 702.574219 C 416.878906 729.230469 438.996094 746.863281 469.558594 755.039062 C 499.859375 763.140625 529.925781 765.582031 558.121094 749.566406 C 611.375 719.328125 645.042969 651.382812 650.609375 592.269531 C 656.679688 527.820312 621.199219 457.007812 556.335938 438.171875 "/>
<path style=" stroke:none;fill-rule:nonzero;fill:rgb(100%,100%,100%);fill-opacity:1;" d="M 297.917969 651.039062 C 281.082031 691.640625 247.496094 723.527344 207.652344 740.9375 C 206.390625 718.699219 205.558594 696.421875 206.414062 674.160156 C 207.128906 655.832031 209.851562 637.699219 210.414062 619.386719 C 210.9375 602.441406 210.804688 585.4375 209.972656 568.503906 C 209.664062 562.101562 209.496094 555.238281 208.949219 548.394531 C 227.960938 546.230469 247.316406 549.121094 264.972656 558.84375 C 279.726562 566.96875 292.300781 578.667969 300.058594 593.753906 C 309.636719 612.402344 305.636719 632.390625 297.917969 651.039062 Z M 287.125 512.042969 C 237.453125 487.066406 179.371094 492.789062 132.460938 521.40625 C 104.183594 538.660156 129.820312 583.128906 158.21875 566.339844 C 158.265625 568.683594 158.328125 571.121094 158.433594 573.765625 C 159.050781 589.863281 159.148438 606.011719 158.550781 622.109375 C 157.898438 639.507812 155.316406 656.75 154.636719 674.160156 C 153.664062 699.433594 154.863281 724.707031 156.410156 749.933594 C 156.507812 751.5625 156.753906 753.074219 157.089844 754.539062 C 151.449219 755.167969 145.796875 755.527344 140.125 755.5625 C 106.8125 755.789062 106.738281 807.574219 140.125 807.347656 C 234.777344 806.707031 333.074219 739.546875 354.355469 644.136719 C 366.585938 589.375 336.355469 536.78125 287.125 512.042969 "/>
<path style=" stroke:none;fill-rule:nonzero;fill:rgb(100%,86.268616%,19.219971%);fill-opacity:1;" d="M 737.367188 261.847656 C 665.980469 367.976562 590.816406 474.226562 512.351562 574.503906 C 473.722656 546.957031 434.878906 519.71875 396.34375 492.050781 C 384.96875 483.890625 367.515625 490.066406 360.925781 501.34375 C 353.296875 514.375 358.820312 528.59375 370.203125 536.769531 C 414.769531 568.765625 459.765625 600.15625 504.332031 632.140625 C 512.699219 638.152344 529.128906 636.402344 535.707031 628.097656 C 622.449219 518.539062 704.089844 403.914062 782.074219 287.992188 C 800.730469 260.265625 755.890625 234.3125 737.367188 261.847656 "/>
<path style=" stroke:none;fill-rule:nonzero;fill:rgb(40.388489%,9.799194%,49.409485%);fill-opacity:1;" d="M 168.25 288.074219 C 168.390625 325.03125 172.769531 361.800781 181.097656 397.820312 C 187.722656 426.449219 231.792969 414.335938 225.152344 385.671875 C 217.707031 353.496094 214.054688 321.09375 213.933594 288.074219 C 213.816406 258.671875 168.128906 258.609375 168.25 288.074219 "/>
<path style=" stroke:none;fill-rule:nonzero;fill:rgb(40.388489%,9.799194%,49.409485%);fill-opacity:1;" d="M 233.636719 65.007812 C 286.078125 77.382812 340.070312 76.574219 392.023438 62.152344 C 420.316406 54.300781 408.300781 10.199219 379.890625 18.089844 C 335.796875 30.324219 290.339844 31.464844 245.769531 20.945312 C 217.183594 14.199219 204.976562 58.238281 233.636719 65.007812 "/>
<g clip-path="url(#clip2)" clip-rule="nonzero">
<path style=" stroke:none;fill-rule:nonzero;fill:rgb(40.388489%,9.799194%,49.409485%);fill-opacity:1;" d="M 513.554688 888.214844 C 613.300781 902.734375 684.96875 828.386719 732.15625 749.851562 C 747.335938 724.589844 707.847656 701.585938 692.703125 726.800781 C 658.09375 784.394531 602.1875 855.289062 525.703125 844.152344 C 513.398438 842.367188 501.289062 847.210938 497.601562 860.109375 C 494.53125 870.832031 501.347656 886.441406 513.554688 888.214844 "/>
</g>
</g>
</svg>
